<mxfile host="app.diagrams.net" modified="2024-02-07T04:44:50.429Z" agent="Mozilla/5.0 (X11; Linux x86_64) AppleWebKit/537.36 (KHTML, like Gecko) Chrome/120.0.0.0 Safari/537.36" etag="jcstiwhHauUoFr_jz_Xe" version="23.1.1" type="device">
  <diagram name="Page-1" id="mhFU8MoSU1GMg7Nur-mQ">
    <mxGraphModel dx="986" dy="530" grid="1" gridSize="10" guides="1" tooltips="1" connect="1" arrows="1" fold="1" page="1" pageScale="1" pageWidth="850" pageHeight="1100" math="0" shadow="0">
      <root>
        <mxCell id="0" />
        <mxCell id="1" parent="0" />
        <mxCell id="teKc-SA_FYjNyTEDvhP2-17" style="edgeStyle=orthogonalEdgeStyle;rounded=0;orthogonalLoop=1;jettySize=auto;html=1;entryX=0.5;entryY=0;entryDx=0;entryDy=0;" edge="1" parent="1" source="teKc-SA_FYjNyTEDvhP2-1" target="teKc-SA_FYjNyTEDvhP2-2">
          <mxGeometry relative="1" as="geometry" />
        </mxCell>
        <mxCell id="teKc-SA_FYjNyTEDvhP2-1" value="Memulai" style="rounded=1;whiteSpace=wrap;html=1;arcSize=50;" vertex="1" parent="1">
          <mxGeometry x="320" y="60" width="120" height="60" as="geometry" />
        </mxCell>
        <mxCell id="teKc-SA_FYjNyTEDvhP2-5" style="edgeStyle=orthogonalEdgeStyle;rounded=0;orthogonalLoop=1;jettySize=auto;html=1;entryX=0.5;entryY=0;entryDx=0;entryDy=0;" edge="1" parent="1" source="teKc-SA_FYjNyTEDvhP2-2" target="teKc-SA_FYjNyTEDvhP2-3">
          <mxGeometry relative="1" as="geometry" />
        </mxCell>
        <mxCell id="teKc-SA_FYjNyTEDvhP2-2" value="Melakukan &lt;i&gt;generate&lt;/i&gt;&amp;nbsp;data sample&amp;nbsp;" style="rounded=1;whiteSpace=wrap;html=1;" vertex="1" parent="1">
          <mxGeometry x="320" y="170" width="120" height="60" as="geometry" />
        </mxCell>
        <mxCell id="teKc-SA_FYjNyTEDvhP2-6" style="edgeStyle=orthogonalEdgeStyle;rounded=0;orthogonalLoop=1;jettySize=auto;html=1;" edge="1" parent="1" source="teKc-SA_FYjNyTEDvhP2-3" target="teKc-SA_FYjNyTEDvhP2-4">
          <mxGeometry relative="1" as="geometry" />
        </mxCell>
        <mxCell id="teKc-SA_FYjNyTEDvhP2-3" value="Melakukan proses operasi matriks dengan CPU" style="rounded=1;whiteSpace=wrap;html=1;" vertex="1" parent="1">
          <mxGeometry x="320" y="290" width="120" height="60" as="geometry" />
        </mxCell>
        <mxCell id="teKc-SA_FYjNyTEDvhP2-22" style="edgeStyle=orthogonalEdgeStyle;rounded=0;orthogonalLoop=1;jettySize=auto;html=1;" edge="1" parent="1" source="teKc-SA_FYjNyTEDvhP2-4" target="teKc-SA_FYjNyTEDvhP2-21">
          <mxGeometry relative="1" as="geometry" />
        </mxCell>
        <mxCell id="teKc-SA_FYjNyTEDvhP2-4" value="Melakukan proses operasi matriks dengan GPU" style="rounded=1;whiteSpace=wrap;html=1;" vertex="1" parent="1">
          <mxGeometry x="320" y="410" width="120" height="60" as="geometry" />
        </mxCell>
        <mxCell id="teKc-SA_FYjNyTEDvhP2-13" style="edgeStyle=orthogonalEdgeStyle;rounded=0;orthogonalLoop=1;jettySize=auto;html=1;entryX=0.5;entryY=0;entryDx=0;entryDy=0;" edge="1" parent="1" source="teKc-SA_FYjNyTEDvhP2-7" target="teKc-SA_FYjNyTEDvhP2-12">
          <mxGeometry relative="1" as="geometry" />
        </mxCell>
        <mxCell id="teKc-SA_FYjNyTEDvhP2-15" value="Iya" style="edgeLabel;html=1;align=center;verticalAlign=middle;resizable=0;points=[];" vertex="1" connectable="0" parent="teKc-SA_FYjNyTEDvhP2-13">
          <mxGeometry y="-1" relative="1" as="geometry">
            <mxPoint as="offset" />
          </mxGeometry>
        </mxCell>
        <mxCell id="teKc-SA_FYjNyTEDvhP2-16" style="edgeStyle=orthogonalEdgeStyle;rounded=0;orthogonalLoop=1;jettySize=auto;html=1;entryX=1;entryY=0.5;entryDx=0;entryDy=0;" edge="1" parent="1" source="teKc-SA_FYjNyTEDvhP2-7" target="teKc-SA_FYjNyTEDvhP2-2">
          <mxGeometry relative="1" as="geometry">
            <Array as="points">
              <mxPoint x="560" y="740" />
              <mxPoint x="560" y="200" />
            </Array>
          </mxGeometry>
        </mxCell>
        <mxCell id="teKc-SA_FYjNyTEDvhP2-19" value="Tidak" style="edgeLabel;html=1;align=center;verticalAlign=middle;resizable=0;points=[];" vertex="1" connectable="0" parent="teKc-SA_FYjNyTEDvhP2-16">
          <mxGeometry x="-0.846" y="-1" relative="1" as="geometry">
            <mxPoint as="offset" />
          </mxGeometry>
        </mxCell>
        <mxCell id="teKc-SA_FYjNyTEDvhP2-7" value="Variasi terakhir?" style="rhombus;whiteSpace=wrap;html=1;" vertex="1" parent="1">
          <mxGeometry x="340" y="700" width="80" height="80" as="geometry" />
        </mxCell>
        <mxCell id="teKc-SA_FYjNyTEDvhP2-12" value="Selesai" style="rounded=1;whiteSpace=wrap;html=1;arcSize=50;" vertex="1" parent="1">
          <mxGeometry x="320" y="870" width="120" height="60" as="geometry" />
        </mxCell>
        <mxCell id="teKc-SA_FYjNyTEDvhP2-23" style="edgeStyle=orthogonalEdgeStyle;rounded=0;orthogonalLoop=1;jettySize=auto;html=1;entryX=0;entryY=0.5;entryDx=0;entryDy=0;" edge="1" parent="1" source="teKc-SA_FYjNyTEDvhP2-21" target="teKc-SA_FYjNyTEDvhP2-3">
          <mxGeometry relative="1" as="geometry">
            <Array as="points">
              <mxPoint x="260" y="575" />
              <mxPoint x="260" y="320" />
            </Array>
          </mxGeometry>
        </mxCell>
        <mxCell id="teKc-SA_FYjNyTEDvhP2-26" value="Tidak" style="edgeLabel;html=1;align=center;verticalAlign=middle;resizable=0;points=[];" vertex="1" connectable="0" parent="teKc-SA_FYjNyTEDvhP2-23">
          <mxGeometry x="-0.8144" relative="1" as="geometry">
            <mxPoint as="offset" />
          </mxGeometry>
        </mxCell>
        <mxCell id="teKc-SA_FYjNyTEDvhP2-27" style="edgeStyle=orthogonalEdgeStyle;rounded=0;orthogonalLoop=1;jettySize=auto;html=1;entryX=0.5;entryY=0;entryDx=0;entryDy=0;" edge="1" parent="1" source="teKc-SA_FYjNyTEDvhP2-21" target="teKc-SA_FYjNyTEDvhP2-7">
          <mxGeometry relative="1" as="geometry">
            <mxPoint x="240" y="690" as="targetPoint" />
          </mxGeometry>
        </mxCell>
        <mxCell id="teKc-SA_FYjNyTEDvhP2-28" value="Iya" style="edgeLabel;html=1;align=center;verticalAlign=middle;resizable=0;points=[];" vertex="1" connectable="0" parent="teKc-SA_FYjNyTEDvhP2-27">
          <mxGeometry x="-0.6998" y="2" relative="1" as="geometry">
            <mxPoint x="-2" y="18" as="offset" />
          </mxGeometry>
        </mxCell>
        <mxCell id="teKc-SA_FYjNyTEDvhP2-21" value="Sudah &lt;br&gt;dilakukan &lt;br&gt;10 kali?" style="rhombus;whiteSpace=wrap;html=1;" vertex="1" parent="1">
          <mxGeometry x="335" y="530" width="90" height="90" as="geometry" />
        </mxCell>
      </root>
    </mxGraphModel>
  </diagram>
</mxfile>
